<svg xmlns="http://www.w3.org/2000/svg" width="42" height="42" viewBox="0 0 42 42">
  <g id="组_1355" data-name="组 1355" transform="translate(-347 -244)">
    <rect id="矩形_1922" data-name="矩形 1922" width="42" height="42" rx="6" transform="translate(347 244)" fill="#d9e5fe"/>
    <path id="路径_1335" data-name="路径 1335" d="M15.086,19.1a11.524,11.524,0,0,1-2.948.494,13.319,13.319,0,0,1-3.808-.366,1.385,1.385,0,0,0-.621.064c-.956.462-1.928.956-2.884,1.418a.859.859,0,0,1-1.02-.032.969.969,0,0,1-.3-.956c.127-.8.223-1.593.3-2.39a.862.862,0,0,0-.223-.526A10.753,10.753,0,0,1,.7,12.412,8.473,8.473,0,0,1,3.12,3.474a12.28,12.28,0,0,1,17.048.366,8.543,8.543,0,0,1,2.454,5.9,3.025,3.025,0,0,0-1.259-.271H21.3a3.025,3.025,0,0,0-2.884,2.677,3.331,3.331,0,0,0,0,.8,3.741,3.741,0,0,1-2.087,1.052h-.016A2.911,2.911,0,0,0,15.086,19.1ZM21.363,10.9a1.5,1.5,0,0,1,1.5,1.195,5.274,5.274,0,0,0,1.45,2.852c.1.1.032.366.064.526-.191,0-.43.064-.526-.032a5.436,5.436,0,0,0-2.884-1.5,1.486,1.486,0,0,1-1.131-1.625,1.605,1.605,0,0,1,1.53-1.418Zm5.927,5.959a1.485,1.485,0,0,1-1.227,1.53,5.122,5.122,0,0,0-2.74,1.418c-.159.159-.4.3-.558.064a.607.607,0,0,1,.064-.526,5.15,5.15,0,0,0,1.418-2.788A1.517,1.517,0,0,1,25.9,15.328a1.537,1.537,0,0,1,1.386,1.53Zm-4.4,4.4a1.543,1.543,0,0,1-1.322,1.53,1.5,1.5,0,0,1-1.657-1.1,5.559,5.559,0,0,0-1.53-2.948c-.1-.1-.032-.3-.064-.462.159,0,.43-.064.494,0a6.063,6.063,0,0,0,2.979,1.561,1.421,1.421,0,0,1,1.1,1.418Zm-7.457-4.429A1.464,1.464,0,0,1,16.6,15.408a5.273,5.273,0,0,0,2.852-1.45c.1-.1.335-.064.494-.064-.032.159.032.4-.064.494a5.383,5.383,0,0,0-1.45,2.852,1.422,1.422,0,0,1-1.657,1.131,1.6,1.6,0,0,1-1.338-1.545Z" transform="translate(354.71 253.788)" fill="#447ffb"/>
  </g>
</svg>
