<svg xmlns="http://www.w3.org/2000/svg" width="42" height="42" viewBox="0 0 42 42">
  <g id="组_1356" data-name="组 1356" transform="translate(-573 -244)">
    <rect id="矩形_1923" data-name="矩形 1923" width="42" height="42" rx="6" transform="translate(573 244)" fill="#08ce3d" opacity="0.2"/>
    <path id="路径_1334" data-name="路径 1334" d="M23.057,1.158H3.961a.89.89,0,0,0-.9.869.894.894,0,0,0,.9.869H23.169V21.425a1.85,1.85,0,0,1-1.929,1.744H3.217a1.849,1.849,0,0,1-1.929-1.744V20.187H1.94A1.059,1.059,0,0,0,3,19.131V17.553A1.037,1.037,0,0,0,2.7,16.81,1.081,1.081,0,0,0,1.94,16.5H1.287V13.34H1.94A1.059,1.059,0,0,0,3,12.287V10.707A1.037,1.037,0,0,0,2.7,9.964a1.081,1.081,0,0,0-.756-.311H1.287V6.5H1.94A1.059,1.059,0,0,0,3,5.44V3.861A1.037,1.037,0,0,0,2.7,3.119a1.081,1.081,0,0,0-.756-.311H1.287V1.743A1.849,1.849,0,0,1,3.217,0H21.239a1.937,1.937,0,0,1,1.817,1.158ZM.644,6.436A.716.716,0,0,1,0,5.664V4.634a.718.718,0,0,1,.644-.772H1.931a.716.716,0,0,1,.644.772v1.03a.717.717,0,0,1-.644.771H.644Zm0,6.436A.717.717,0,0,1,0,12.1V11.07A.718.718,0,0,1,.644,10.3H1.931a.717.717,0,0,1,.644.772V12.1a.717.717,0,0,1-.644.772H.644Zm1.287,6.436H.644A.717.717,0,0,1,0,18.535v-1.03a.718.718,0,0,1,.644-.772H1.931a.717.717,0,0,1,.644.772v1.03A.717.717,0,0,1,1.931,19.307Zm15.028-3.056a10.308,10.308,0,0,0-2.812-.806S12.791,16.9,12.218,16.9s-1.927-1.453-1.927-1.453a10.334,10.334,0,0,0-2.811.8c-.722.488-1.044,3.057-1.044,3.057H18.02s-.21-2.484-1.066-3.057h0Zm-4.73-2.093A3.218,3.218,0,1,0,9.01,10.941,3.218,3.218,0,0,0,12.228,14.159Z" transform="translate(582 253)" fill="#08ce3d"/>
    <g id="组_1340" data-name="组 1340" transform="translate(-55 -6.169)">
      <circle id="椭圆_284" data-name="椭圆 284" cx="4" cy="4" r="4" transform="translate(654 277)" fill="#fff"/>
      <path id="路径_1340" data-name="路径 1340" d="M117.128,112.128a5,5,0,1,0,5,5A5,5,0,0,0,117.128,112.128Zm-2.676,4.078a1.251,1.251,0,0,1,1.248-1.255h2.574v-.666a.082.082,0,0,1,.134-.064l1.364,1.069a.084.084,0,0,1,0,.134l-1.364,1.069a.082.082,0,0,1-.134-.064v-.666H115.7a.444.444,0,0,0-.442.448v.98a.085.085,0,0,1-.083.083h-.634a.085.085,0,0,1-.083-.083v-.986Zm5.352,1.844a1.255,1.255,0,0,1-1.248,1.255h-2.574v.666a.082.082,0,0,1-.134.064l-1.364-1.069a.084.084,0,0,1,0-.134l1.364-1.076a.082.082,0,0,1,.134.064v.666h2.574a.444.444,0,0,0,.442-.448v-.98a.085.085,0,0,1,.083-.083h.634a.085.085,0,0,1,.083.083v.992Z" transform="translate(541.872 164.041)" fill="#447ffb"/>
    </g>
  </g>
</svg>
