<svg xmlns="http://www.w3.org/2000/svg" width="42" height="42" viewBox="0 0 42 42">
  <g id="组_1357" data-name="组 1357" transform="translate(-800 -244)">
    <rect id="矩形_1924" data-name="矩形 1924" width="42" height="42" rx="6" transform="translate(800 244)" fill="#ffe6d5"/>
    <g id="组_1344" data-name="组 1344">
      <path id="路径_1339" data-name="路径 1339" d="M118.892,72.128h-4.811c-4.519,0-8.1,0-8.1-2.293v-.477a8.046,8.046,0,0,1,8.1-7.978h4.811a8.046,8.046,0,0,1,8.1,7.978v.477C126.989,72.128,123.239,72.128,118.892,72.128Zm-2.637-11.357a6.322,6.322,0,1,1,6.414-6.321A6.375,6.375,0,0,1,116.255,60.771Z" transform="translate(704.016 204.872)" fill="#ff8431"/>
      <rect id="矩形_1927" data-name="矩形 1927" width="7" height="2" rx="1" transform="translate(828 262)" fill="#ff8431"/>
      <rect id="矩形_1929" data-name="矩形 1929" width="7" height="2" rx="1" transform="translate(828 258)" fill="#ff8431"/>
      <rect id="矩形_1928" data-name="矩形 1928" width="6" height="2" rx="1" transform="translate(829 266)" fill="#ff8431"/>
    </g>
    <g id="组_1341" data-name="组 1341" transform="translate(172 -6.169)">
      <circle id="椭圆_284" data-name="椭圆 284" cx="4" cy="4" r="4" transform="translate(654 277)" fill="#fff"/>
      <path id="路径_1340" data-name="路径 1340" d="M117.128,112.128a5,5,0,1,0,5,5A5,5,0,0,0,117.128,112.128Zm-2.676,4.078a1.251,1.251,0,0,1,1.248-1.255h2.574v-.666a.082.082,0,0,1,.134-.064l1.364,1.069a.084.084,0,0,1,0,.134l-1.364,1.069a.082.082,0,0,1-.134-.064v-.666H115.7a.444.444,0,0,0-.442.448v.98a.085.085,0,0,1-.083.083h-.634a.085.085,0,0,1-.083-.083v-.986Zm5.352,1.844a1.255,1.255,0,0,1-1.248,1.255h-2.574v.666a.082.082,0,0,1-.134.064l-1.364-1.069a.084.084,0,0,1,0-.134l1.364-1.076a.082.082,0,0,1,.134.064v.666h2.574a.444.444,0,0,0,.442-.448v-.98a.085.085,0,0,1,.083-.083h.634a.085.085,0,0,1,.083.083v.992Z" transform="translate(541.872 164.041)" fill="#447ffb"/>
    </g>
  </g>
</svg>
