<svg xmlns="http://www.w3.org/2000/svg" width="42" height="42" viewBox="0 0 42 42">
  <g id="组_1358" data-name="组 1358" transform="translate(-1027 -244)">
    <rect id="矩形_1925" data-name="矩形 1925" width="42" height="42" rx="6" transform="translate(1027 244)" fill="#ffcdcd"/>
    <path id="路径_1338" data-name="路径 1338" d="M107.428,92.16a1.3,1.3,0,0,1,.917.387l4.917,4.917a1.347,1.347,0,0,1,.387,1.061v5.72a7.059,7.059,0,1,0-6.379,10.092,7.717,7.717,0,0,0,1.634-.186l1.534,1.534H94.181a2.019,2.019,0,0,1-2.021-2.021V94.181a2.019,2.019,0,0,1,2.021-2.021Zm5.132,17.475,2.81,2.781a1.012,1.012,0,0,1,0,1.419l-1.434,1.419a1.03,1.03,0,0,1-1.434,0l-2.824-2.8a.807.807,0,0,0-.817-.186,5.206,5.206,0,0,1-5.118-1.29,5.085,5.085,0,0,1-1.434-4.53.588.588,0,0,1,.989-.287l2.767,2.738a1.03,1.03,0,0,0,1.434,0l1.434-1.419a1.012,1.012,0,0,0,0-1.419l-2.8-2.767a.583.583,0,0,1,.287-.989,5.2,5.2,0,0,1,4.645,1.4,5.039,5.039,0,0,1,1.29,5.1A.845.845,0,0,0,112.56,109.635Z" transform="translate(943.84 160.84)" fill="#ff5151"/>
  </g>
</svg>
