<svg xmlns="http://www.w3.org/2000/svg" width="42" height="42" viewBox="0 0 42 42">
  <g id="组_1359" data-name="组 1359" transform="translate(-1253 -244)">
    <rect id="矩形_1926" data-name="矩形 1926" width="42" height="42" rx="6" transform="translate(1253 244)" fill="#d5d5ff"/>
    <path id="路径_1341" data-name="路径 1341" d="M118.892,72.128h-4.811c-4.519,0-8.1,0-8.1-2.293v-.477a8.046,8.046,0,0,1,8.1-7.978h4.811a8.046,8.046,0,0,1,8.1,7.978v.477C126.989,72.128,123.239,72.128,118.892,72.128Zm-2.637-11.357a6.322,6.322,0,1,1,6.414-6.321A6.375,6.375,0,0,1,116.255,60.771Z" transform="translate(1157.016 204.872)" fill="#9456ff"/>
    <g id="组_1343" data-name="组 1343" transform="translate(392)">
      <circle id="椭圆_284" data-name="椭圆 284" cx="5" cy="5" r="5" transform="translate(887 270)" fill="#447ffb"/>
      <path id="路径_1342" data-name="路径 1342" d="M106.075,104.977l1.046,1.035a.377.377,0,0,1,0,.528l-.534.528a.383.383,0,0,1-.534,0L105,106.029a.3.3,0,0,0-.3-.069,1.938,1.938,0,0,1-1.905-.48,1.893,1.893,0,0,1-.534-1.686.219.219,0,0,1,.368-.107l1.03,1.019a.383.383,0,0,0,.534,0l.534-.528a.377.377,0,0,0,0-.528l-1.041-1.03a.217.217,0,0,1,.107-.368,1.934,1.934,0,0,1,1.729.523,1.876,1.876,0,0,1,.48,1.9A.315.315,0,0,0,106.075,104.977Z" transform="translate(787.271 170.285)" fill="#fff"/>
    </g>
  </g>
</svg>
